<mxfile host="Electron" agent="Mozilla/5.0 (Windows NT 10.0; Win64; x64) AppleWebKit/537.36 (KHTML, like Gecko) draw.io/26.0.16 Chrome/132.0.6834.196 Electron/34.2.0 Safari/537.36" version="26.0.16">
  <diagram name="Страница — 1" id="J9r1to1jXheVAmECJ3lB">
    <mxGraphModel dx="2383" dy="1564" grid="1" gridSize="14" guides="1" tooltips="1" connect="1" arrows="1" fold="1" page="1" pageScale="1" pageWidth="827" pageHeight="1169" math="0" shadow="0">
      <root>
        <mxCell id="0" />
        <mxCell id="1" parent="0" />
        <mxCell id="e3BRfSjyO--Cy6MmrieM-1" value="" style="shape=table;startSize=0;container=1;collapsible=0;childLayout=tableLayout;fontSize=16;" parent="1" vertex="1">
          <mxGeometry x="-740" y="310" width="1210" height="893.9999999999998" as="geometry" />
        </mxCell>
        <mxCell id="e3BRfSjyO--Cy6MmrieM-23" value="" style="shape=tableRow;horizontal=0;startSize=0;swimlaneHead=0;swimlaneBody=0;strokeColor=inherit;top=0;left=0;bottom=0;right=0;collapsible=0;dropTarget=0;fillColor=none;points=[[0,0.5],[1,0.5]];portConstraint=eastwest;fontSize=16;" parent="e3BRfSjyO--Cy6MmrieM-1" vertex="1">
          <mxGeometry width="1210" height="43" as="geometry" />
        </mxCell>
        <mxCell id="e3BRfSjyO--Cy6MmrieM-24" value="" style="shape=partialRectangle;html=1;whiteSpace=wrap;connectable=0;strokeColor=inherit;overflow=hidden;fillColor=none;top=0;left=0;bottom=0;right=0;pointerEvents=1;fontSize=16;" parent="e3BRfSjyO--Cy6MmrieM-23" vertex="1">
          <mxGeometry width="180" height="43" as="geometry">
            <mxRectangle width="180" height="43" as="alternateBounds" />
          </mxGeometry>
        </mxCell>
        <mxCell id="e3BRfSjyO--Cy6MmrieM-25" value="Продажи в сети отделений" style="shape=partialRectangle;html=1;whiteSpace=wrap;connectable=0;strokeColor=inherit;overflow=hidden;fillColor=none;top=0;left=0;bottom=0;right=0;pointerEvents=1;fontSize=16;" parent="e3BRfSjyO--Cy6MmrieM-23" vertex="1">
          <mxGeometry x="180" width="150" height="43" as="geometry">
            <mxRectangle width="150" height="43" as="alternateBounds" />
          </mxGeometry>
        </mxCell>
        <mxCell id="e3BRfSjyO--Cy6MmrieM-27" value="Продажи через кол-центр" style="shape=partialRectangle;html=1;whiteSpace=wrap;connectable=0;strokeColor=inherit;overflow=hidden;fillColor=none;top=0;left=0;bottom=0;right=0;pointerEvents=1;fontSize=16;" parent="e3BRfSjyO--Cy6MmrieM-23" vertex="1">
          <mxGeometry x="330" width="160" height="43" as="geometry">
            <mxRectangle width="160" height="43" as="alternateBounds" />
          </mxGeometry>
        </mxCell>
        <mxCell id="e3BRfSjyO--Cy6MmrieM-26" value="Digital-оповещение клиентов&amp;nbsp;" style="shape=partialRectangle;html=1;whiteSpace=wrap;connectable=0;strokeColor=inherit;overflow=hidden;fillColor=none;top=0;left=0;bottom=0;right=0;pointerEvents=1;fontSize=16;" parent="e3BRfSjyO--Cy6MmrieM-23" vertex="1">
          <mxGeometry x="490" width="180" height="43" as="geometry">
            <mxRectangle width="180" height="43" as="alternateBounds" />
          </mxGeometry>
        </mxCell>
        <mxCell id="e3BRfSjyO--Cy6MmrieM-52" value="Обслуживание депозитных процесов" style="shape=partialRectangle;html=1;whiteSpace=wrap;connectable=0;strokeColor=inherit;overflow=hidden;fillColor=none;top=0;left=0;bottom=0;right=0;pointerEvents=1;fontSize=16;" parent="e3BRfSjyO--Cy6MmrieM-23" vertex="1">
          <mxGeometry x="670" width="180" height="43" as="geometry">
            <mxRectangle width="180" height="43" as="alternateBounds" />
          </mxGeometry>
        </mxCell>
        <mxCell id="e3BRfSjyO--Cy6MmrieM-45" value="Обслуживание кредитных процессов" style="shape=partialRectangle;html=1;whiteSpace=wrap;connectable=0;strokeColor=inherit;overflow=hidden;fillColor=none;top=0;left=0;bottom=0;right=0;pointerEvents=1;fontSize=16;" parent="e3BRfSjyO--Cy6MmrieM-23" vertex="1">
          <mxGeometry x="850" width="198" height="43" as="geometry">
            <mxRectangle width="198" height="43" as="alternateBounds" />
          </mxGeometry>
        </mxCell>
        <mxCell id="e3BRfSjyO--Cy6MmrieM-38" value="Управление договорами" style="shape=partialRectangle;html=1;whiteSpace=wrap;connectable=0;strokeColor=inherit;overflow=hidden;fillColor=none;top=0;left=0;bottom=0;right=0;pointerEvents=1;fontSize=16;" parent="e3BRfSjyO--Cy6MmrieM-23" vertex="1">
          <mxGeometry x="1048" width="162" height="43" as="geometry">
            <mxRectangle width="162" height="43" as="alternateBounds" />
          </mxGeometry>
        </mxCell>
        <mxCell id="e3BRfSjyO--Cy6MmrieM-19" value="" style="shape=tableRow;horizontal=0;startSize=0;swimlaneHead=0;swimlaneBody=0;strokeColor=inherit;top=0;left=0;bottom=0;right=0;collapsible=0;dropTarget=0;fillColor=none;points=[[0,0.5],[1,0.5]];portConstraint=eastwest;fontSize=16;" parent="e3BRfSjyO--Cy6MmrieM-1" vertex="1">
          <mxGeometry y="43" width="1210" height="207" as="geometry" />
        </mxCell>
        <mxCell id="e3BRfSjyO--Cy6MmrieM-20" value="Оттделение(фронт-офис) банка" style="shape=partialRectangle;html=1;whiteSpace=wrap;connectable=0;strokeColor=inherit;overflow=hidden;fillColor=none;top=0;left=0;bottom=0;right=0;pointerEvents=1;fontSize=16;" parent="e3BRfSjyO--Cy6MmrieM-19" vertex="1">
          <mxGeometry width="180" height="207" as="geometry">
            <mxRectangle width="180" height="207" as="alternateBounds" />
          </mxGeometry>
        </mxCell>
        <mxCell id="e3BRfSjyO--Cy6MmrieM-21" value="" style="shape=partialRectangle;html=1;whiteSpace=wrap;connectable=0;strokeColor=inherit;overflow=hidden;fillColor=none;top=0;left=0;bottom=0;right=0;pointerEvents=1;fontSize=16;" parent="e3BRfSjyO--Cy6MmrieM-19" vertex="1">
          <mxGeometry x="180" width="150" height="207" as="geometry">
            <mxRectangle width="150" height="207" as="alternateBounds" />
          </mxGeometry>
        </mxCell>
        <mxCell id="e3BRfSjyO--Cy6MmrieM-28" style="shape=partialRectangle;html=1;whiteSpace=wrap;connectable=0;strokeColor=inherit;overflow=hidden;fillColor=none;top=0;left=0;bottom=0;right=0;pointerEvents=1;fontSize=16;" parent="e3BRfSjyO--Cy6MmrieM-19" vertex="1">
          <mxGeometry x="330" width="160" height="207" as="geometry">
            <mxRectangle width="160" height="207" as="alternateBounds" />
          </mxGeometry>
        </mxCell>
        <mxCell id="e3BRfSjyO--Cy6MmrieM-22" value="" style="shape=partialRectangle;html=1;whiteSpace=wrap;connectable=0;strokeColor=inherit;overflow=hidden;fillColor=none;top=0;left=0;bottom=0;right=0;pointerEvents=1;fontSize=16;" parent="e3BRfSjyO--Cy6MmrieM-19" vertex="1">
          <mxGeometry x="490" width="180" height="207" as="geometry">
            <mxRectangle width="180" height="207" as="alternateBounds" />
          </mxGeometry>
        </mxCell>
        <mxCell id="e3BRfSjyO--Cy6MmrieM-53" style="shape=partialRectangle;html=1;whiteSpace=wrap;connectable=0;strokeColor=inherit;overflow=hidden;fillColor=none;top=0;left=0;bottom=0;right=0;pointerEvents=1;fontSize=16;" parent="e3BRfSjyO--Cy6MmrieM-19" vertex="1">
          <mxGeometry x="670" width="180" height="207" as="geometry">
            <mxRectangle width="180" height="207" as="alternateBounds" />
          </mxGeometry>
        </mxCell>
        <mxCell id="e3BRfSjyO--Cy6MmrieM-46" style="shape=partialRectangle;html=1;whiteSpace=wrap;connectable=0;strokeColor=inherit;overflow=hidden;fillColor=none;top=0;left=0;bottom=0;right=0;pointerEvents=1;fontSize=16;" parent="e3BRfSjyO--Cy6MmrieM-19" vertex="1">
          <mxGeometry x="850" width="198" height="207" as="geometry">
            <mxRectangle width="198" height="207" as="alternateBounds" />
          </mxGeometry>
        </mxCell>
        <mxCell id="e3BRfSjyO--Cy6MmrieM-39" style="shape=partialRectangle;html=1;whiteSpace=wrap;connectable=0;strokeColor=inherit;overflow=hidden;fillColor=none;top=0;left=0;bottom=0;right=0;pointerEvents=1;fontSize=16;" parent="e3BRfSjyO--Cy6MmrieM-19" vertex="1">
          <mxGeometry x="1048" width="162" height="207" as="geometry">
            <mxRectangle width="162" height="207" as="alternateBounds" />
          </mxGeometry>
        </mxCell>
        <mxCell id="e3BRfSjyO--Cy6MmrieM-15" value="" style="shape=tableRow;horizontal=0;startSize=0;swimlaneHead=0;swimlaneBody=0;strokeColor=inherit;top=0;left=0;bottom=0;right=0;collapsible=0;dropTarget=0;fillColor=none;points=[[0,0.5],[1,0.5]];portConstraint=eastwest;fontSize=16;" parent="e3BRfSjyO--Cy6MmrieM-1" vertex="1">
          <mxGeometry y="250" width="1210" height="210" as="geometry" />
        </mxCell>
        <mxCell id="e3BRfSjyO--Cy6MmrieM-16" value="Кол-центр банка" style="shape=partialRectangle;html=1;whiteSpace=wrap;connectable=0;strokeColor=inherit;overflow=hidden;fillColor=none;top=0;left=0;bottom=0;right=0;pointerEvents=1;fontSize=16;" parent="e3BRfSjyO--Cy6MmrieM-15" vertex="1">
          <mxGeometry width="180" height="210" as="geometry">
            <mxRectangle width="180" height="210" as="alternateBounds" />
          </mxGeometry>
        </mxCell>
        <mxCell id="e3BRfSjyO--Cy6MmrieM-17" value="" style="shape=partialRectangle;html=1;whiteSpace=wrap;connectable=0;strokeColor=inherit;overflow=hidden;fillColor=none;top=0;left=0;bottom=0;right=0;pointerEvents=1;fontSize=16;" parent="e3BRfSjyO--Cy6MmrieM-15" vertex="1">
          <mxGeometry x="180" width="150" height="210" as="geometry">
            <mxRectangle width="150" height="210" as="alternateBounds" />
          </mxGeometry>
        </mxCell>
        <mxCell id="e3BRfSjyO--Cy6MmrieM-29" style="shape=partialRectangle;html=1;whiteSpace=wrap;connectable=0;strokeColor=inherit;overflow=hidden;fillColor=none;top=0;left=0;bottom=0;right=0;pointerEvents=1;fontSize=16;" parent="e3BRfSjyO--Cy6MmrieM-15" vertex="1">
          <mxGeometry x="330" width="160" height="210" as="geometry">
            <mxRectangle width="160" height="210" as="alternateBounds" />
          </mxGeometry>
        </mxCell>
        <mxCell id="e3BRfSjyO--Cy6MmrieM-18" value="" style="shape=partialRectangle;html=1;whiteSpace=wrap;connectable=0;strokeColor=inherit;overflow=hidden;fillColor=none;top=0;left=0;bottom=0;right=0;pointerEvents=1;fontSize=16;" parent="e3BRfSjyO--Cy6MmrieM-15" vertex="1">
          <mxGeometry x="490" width="180" height="210" as="geometry">
            <mxRectangle width="180" height="210" as="alternateBounds" />
          </mxGeometry>
        </mxCell>
        <mxCell id="e3BRfSjyO--Cy6MmrieM-54" style="shape=partialRectangle;html=1;whiteSpace=wrap;connectable=0;strokeColor=inherit;overflow=hidden;fillColor=none;top=0;left=0;bottom=0;right=0;pointerEvents=1;fontSize=16;" parent="e3BRfSjyO--Cy6MmrieM-15" vertex="1">
          <mxGeometry x="670" width="180" height="210" as="geometry">
            <mxRectangle width="180" height="210" as="alternateBounds" />
          </mxGeometry>
        </mxCell>
        <mxCell id="e3BRfSjyO--Cy6MmrieM-47" style="shape=partialRectangle;html=1;whiteSpace=wrap;connectable=0;strokeColor=inherit;overflow=hidden;fillColor=none;top=0;left=0;bottom=0;right=0;pointerEvents=1;fontSize=16;" parent="e3BRfSjyO--Cy6MmrieM-15" vertex="1">
          <mxGeometry x="850" width="198" height="210" as="geometry">
            <mxRectangle width="198" height="210" as="alternateBounds" />
          </mxGeometry>
        </mxCell>
        <mxCell id="e3BRfSjyO--Cy6MmrieM-40" style="shape=partialRectangle;html=1;whiteSpace=wrap;connectable=0;strokeColor=inherit;overflow=hidden;fillColor=none;top=0;left=0;bottom=0;right=0;pointerEvents=1;fontSize=16;" parent="e3BRfSjyO--Cy6MmrieM-15" vertex="1">
          <mxGeometry x="1048" width="162" height="210" as="geometry">
            <mxRectangle width="162" height="210" as="alternateBounds" />
          </mxGeometry>
        </mxCell>
        <mxCell id="e3BRfSjyO--Cy6MmrieM-2" value="" style="shape=tableRow;horizontal=0;startSize=0;swimlaneHead=0;swimlaneBody=0;strokeColor=inherit;top=0;left=0;bottom=0;right=0;collapsible=0;dropTarget=0;fillColor=none;points=[[0,0.5],[1,0.5]];portConstraint=eastwest;fontSize=16;" parent="e3BRfSjyO--Cy6MmrieM-1" vertex="1">
          <mxGeometry y="460" width="1210" height="224" as="geometry" />
        </mxCell>
        <mxCell id="e3BRfSjyO--Cy6MmrieM-3" value="Отдел кредитования банка" style="shape=partialRectangle;html=1;whiteSpace=wrap;connectable=0;strokeColor=inherit;overflow=hidden;fillColor=none;top=0;left=0;bottom=0;right=0;pointerEvents=1;fontSize=16;" parent="e3BRfSjyO--Cy6MmrieM-2" vertex="1">
          <mxGeometry width="180" height="224" as="geometry">
            <mxRectangle width="180" height="224" as="alternateBounds" />
          </mxGeometry>
        </mxCell>
        <mxCell id="e3BRfSjyO--Cy6MmrieM-4" value="" style="shape=partialRectangle;html=1;whiteSpace=wrap;connectable=0;strokeColor=inherit;overflow=hidden;fillColor=none;top=0;left=0;bottom=0;right=0;pointerEvents=1;fontSize=16;" parent="e3BRfSjyO--Cy6MmrieM-2" vertex="1">
          <mxGeometry x="180" width="150" height="224" as="geometry">
            <mxRectangle width="150" height="224" as="alternateBounds" />
          </mxGeometry>
        </mxCell>
        <mxCell id="e3BRfSjyO--Cy6MmrieM-30" style="shape=partialRectangle;html=1;whiteSpace=wrap;connectable=0;strokeColor=inherit;overflow=hidden;fillColor=none;top=0;left=0;bottom=0;right=0;pointerEvents=1;fontSize=16;" parent="e3BRfSjyO--Cy6MmrieM-2" vertex="1">
          <mxGeometry x="330" width="160" height="224" as="geometry">
            <mxRectangle width="160" height="224" as="alternateBounds" />
          </mxGeometry>
        </mxCell>
        <mxCell id="e3BRfSjyO--Cy6MmrieM-5" value="" style="shape=partialRectangle;html=1;whiteSpace=wrap;connectable=0;strokeColor=inherit;overflow=hidden;fillColor=none;top=0;left=0;bottom=0;right=0;pointerEvents=1;fontSize=16;" parent="e3BRfSjyO--Cy6MmrieM-2" vertex="1">
          <mxGeometry x="490" width="180" height="224" as="geometry">
            <mxRectangle width="180" height="224" as="alternateBounds" />
          </mxGeometry>
        </mxCell>
        <mxCell id="e3BRfSjyO--Cy6MmrieM-55" style="shape=partialRectangle;html=1;whiteSpace=wrap;connectable=0;strokeColor=inherit;overflow=hidden;fillColor=none;top=0;left=0;bottom=0;right=0;pointerEvents=1;fontSize=16;" parent="e3BRfSjyO--Cy6MmrieM-2" vertex="1">
          <mxGeometry x="670" width="180" height="224" as="geometry">
            <mxRectangle width="180" height="224" as="alternateBounds" />
          </mxGeometry>
        </mxCell>
        <mxCell id="e3BRfSjyO--Cy6MmrieM-48" style="shape=partialRectangle;html=1;whiteSpace=wrap;connectable=0;strokeColor=inherit;overflow=hidden;fillColor=none;top=0;left=0;bottom=0;right=0;pointerEvents=1;fontSize=16;" parent="e3BRfSjyO--Cy6MmrieM-2" vertex="1">
          <mxGeometry x="850" width="198" height="224" as="geometry">
            <mxRectangle width="198" height="224" as="alternateBounds" />
          </mxGeometry>
        </mxCell>
        <mxCell id="e3BRfSjyO--Cy6MmrieM-41" style="shape=partialRectangle;html=1;whiteSpace=wrap;connectable=0;strokeColor=inherit;overflow=hidden;fillColor=none;top=0;left=0;bottom=0;right=0;pointerEvents=1;fontSize=16;" parent="e3BRfSjyO--Cy6MmrieM-2" vertex="1">
          <mxGeometry x="1048" width="162" height="224" as="geometry">
            <mxRectangle width="162" height="224" as="alternateBounds" />
          </mxGeometry>
        </mxCell>
        <mxCell id="e3BRfSjyO--Cy6MmrieM-6" value="" style="shape=tableRow;horizontal=0;startSize=0;swimlaneHead=0;swimlaneBody=0;strokeColor=inherit;top=0;left=0;bottom=0;right=0;collapsible=0;dropTarget=0;fillColor=none;points=[[0,0.5],[1,0.5]];portConstraint=eastwest;fontSize=16;" parent="e3BRfSjyO--Cy6MmrieM-1" vertex="1">
          <mxGeometry y="684" width="1210" height="210" as="geometry" />
        </mxCell>
        <mxCell id="e3BRfSjyO--Cy6MmrieM-7" value="Отдел бэк-офиса банка" style="shape=partialRectangle;html=1;whiteSpace=wrap;connectable=0;strokeColor=inherit;overflow=hidden;fillColor=none;top=0;left=0;bottom=0;right=0;pointerEvents=1;fontSize=16;" parent="e3BRfSjyO--Cy6MmrieM-6" vertex="1">
          <mxGeometry width="180" height="210" as="geometry">
            <mxRectangle width="180" height="210" as="alternateBounds" />
          </mxGeometry>
        </mxCell>
        <mxCell id="e3BRfSjyO--Cy6MmrieM-8" value="" style="shape=partialRectangle;html=1;whiteSpace=wrap;connectable=0;strokeColor=inherit;overflow=hidden;fillColor=none;top=0;left=0;bottom=0;right=0;pointerEvents=1;fontSize=16;" parent="e3BRfSjyO--Cy6MmrieM-6" vertex="1">
          <mxGeometry x="180" width="150" height="210" as="geometry">
            <mxRectangle width="150" height="210" as="alternateBounds" />
          </mxGeometry>
        </mxCell>
        <mxCell id="e3BRfSjyO--Cy6MmrieM-31" style="shape=partialRectangle;html=1;whiteSpace=wrap;connectable=0;strokeColor=inherit;overflow=hidden;fillColor=none;top=0;left=0;bottom=0;right=0;pointerEvents=1;fontSize=16;" parent="e3BRfSjyO--Cy6MmrieM-6" vertex="1">
          <mxGeometry x="330" width="160" height="210" as="geometry">
            <mxRectangle width="160" height="210" as="alternateBounds" />
          </mxGeometry>
        </mxCell>
        <mxCell id="e3BRfSjyO--Cy6MmrieM-9" value="" style="shape=partialRectangle;html=1;whiteSpace=wrap;connectable=0;strokeColor=inherit;overflow=hidden;fillColor=none;top=0;left=0;bottom=0;right=0;pointerEvents=1;fontSize=16;" parent="e3BRfSjyO--Cy6MmrieM-6" vertex="1">
          <mxGeometry x="490" width="180" height="210" as="geometry">
            <mxRectangle width="180" height="210" as="alternateBounds" />
          </mxGeometry>
        </mxCell>
        <mxCell id="e3BRfSjyO--Cy6MmrieM-56" style="shape=partialRectangle;html=1;whiteSpace=wrap;connectable=0;strokeColor=inherit;overflow=hidden;fillColor=none;top=0;left=0;bottom=0;right=0;pointerEvents=1;fontSize=16;" parent="e3BRfSjyO--Cy6MmrieM-6" vertex="1">
          <mxGeometry x="670" width="180" height="210" as="geometry">
            <mxRectangle width="180" height="210" as="alternateBounds" />
          </mxGeometry>
        </mxCell>
        <mxCell id="e3BRfSjyO--Cy6MmrieM-49" style="shape=partialRectangle;html=1;whiteSpace=wrap;connectable=0;strokeColor=inherit;overflow=hidden;fillColor=none;top=0;left=0;bottom=0;right=0;pointerEvents=1;fontSize=16;" parent="e3BRfSjyO--Cy6MmrieM-6" vertex="1">
          <mxGeometry x="850" width="198" height="210" as="geometry">
            <mxRectangle width="198" height="210" as="alternateBounds" />
          </mxGeometry>
        </mxCell>
        <mxCell id="e3BRfSjyO--Cy6MmrieM-42" style="shape=partialRectangle;html=1;whiteSpace=wrap;connectable=0;strokeColor=inherit;overflow=hidden;fillColor=none;top=0;left=0;bottom=0;right=0;pointerEvents=1;fontSize=16;" parent="e3BRfSjyO--Cy6MmrieM-6" vertex="1">
          <mxGeometry x="1048" width="162" height="210" as="geometry">
            <mxRectangle width="162" height="210" as="alternateBounds" />
          </mxGeometry>
        </mxCell>
        <mxCell id="e3BRfSjyO--Cy6MmrieM-60" value="&lt;font style=&quot;font-size: 17px;&quot;&gt;Система кол-центра&lt;/font&gt;" style="rounded=1;whiteSpace=wrap;html=1;fillColor=#23A1D8;" parent="1" vertex="1">
          <mxGeometry x="-392" y="574" width="126" height="84" as="geometry" />
        </mxCell>
        <mxCell id="e3BRfSjyO--Cy6MmrieM-103" value="&lt;span style=&quot;font-size: 17px;&quot;&gt;АБС&lt;/span&gt;" style="rounded=1;whiteSpace=wrap;html=1;fillColor=#23A1D8;" parent="1" vertex="1">
          <mxGeometry x="-546" y="462" width="126" height="98" as="geometry" />
        </mxCell>
        <mxCell id="e3BRfSjyO--Cy6MmrieM-106" value="&lt;div&gt;&lt;font style=&quot;font-size: 17px;&quot;&gt;АБС&lt;/font&gt;&lt;/div&gt;" style="rounded=1;whiteSpace=wrap;html=1;fillColor=#23A1D8;" parent="1" vertex="1">
          <mxGeometry x="-546" y="1036" width="462" height="126" as="geometry" />
        </mxCell>
        <mxCell id="e3BRfSjyO--Cy6MmrieM-110" value="&lt;span style=&quot;font-size: 17px;&quot;&gt;АБС&lt;/span&gt;" style="rounded=1;whiteSpace=wrap;html=1;fillColor=#23A1D8;" parent="1" vertex="1">
          <mxGeometry x="322" y="369" width="126" height="126" as="geometry" />
        </mxCell>
        <mxCell id="e3BRfSjyO--Cy6MmrieM-112" style="edgeStyle=orthogonalEdgeStyle;rounded=0;orthogonalLoop=1;jettySize=auto;html=1;exitX=0.5;exitY=1;exitDx=0;exitDy=0;" parent="1" source="e3BRfSjyO--Cy6MmrieM-103" target="e3BRfSjyO--Cy6MmrieM-103" edge="1">
          <mxGeometry relative="1" as="geometry" />
        </mxCell>
        <mxCell id="e3BRfSjyO--Cy6MmrieM-154" value="&lt;span style=&quot;font-size: 17px;&quot;&gt;Электронная почта&lt;/span&gt;" style="rounded=1;whiteSpace=wrap;html=1;fillColor=#23A1D8;" parent="1" vertex="1">
          <mxGeometry x="-546" y="364" width="126" height="84" as="geometry" />
        </mxCell>
        <mxCell id="4Z1tTK1gjGbMZetJ2Ssw-1" value="&lt;span style=&quot;font-size: 17px;&quot;&gt;Электронная почта&lt;/span&gt;" style="rounded=1;whiteSpace=wrap;html=1;fillColor=#23A1D8;" vertex="1" parent="1">
          <mxGeometry x="-42" y="784" width="126" height="84" as="geometry" />
        </mxCell>
        <mxCell id="4Z1tTK1gjGbMZetJ2Ssw-2" value="&lt;span style=&quot;font-size: 17px;&quot;&gt;АБС&lt;/span&gt;" style="rounded=1;whiteSpace=wrap;html=1;fillColor=#23A1D8;" vertex="1" parent="1">
          <mxGeometry x="-42" y="882" width="126" height="98" as="geometry" />
        </mxCell>
        <mxCell id="4Z1tTK1gjGbMZetJ2Ssw-4" value="&lt;span style=&quot;font-size: 17px;&quot;&gt;Электронная почта&lt;/span&gt;" style="rounded=1;whiteSpace=wrap;html=1;fillColor=#23A1D8;" vertex="1" parent="1">
          <mxGeometry x="154" y="784" width="126" height="84" as="geometry" />
        </mxCell>
        <mxCell id="4Z1tTK1gjGbMZetJ2Ssw-5" value="&lt;span style=&quot;font-size: 17px;&quot;&gt;Excel&lt;/span&gt;" style="rounded=1;whiteSpace=wrap;html=1;fillColor=#23A1D8;" vertex="1" parent="1">
          <mxGeometry x="154" y="882" width="126" height="84" as="geometry" />
        </mxCell>
        <mxCell id="4Z1tTK1gjGbMZetJ2Ssw-6" value="&lt;span style=&quot;font-size: 17px;&quot;&gt;Электронная почта&lt;/span&gt;" style="rounded=1;whiteSpace=wrap;html=1;fillColor=#23A1D8;" vertex="1" parent="1">
          <mxGeometry x="-42" y="1008" width="126" height="84" as="geometry" />
        </mxCell>
        <mxCell id="4Z1tTK1gjGbMZetJ2Ssw-7" value="&lt;span style=&quot;font-size: 17px;&quot;&gt;Excel&lt;/span&gt;" style="rounded=1;whiteSpace=wrap;html=1;fillColor=#23A1D8;" vertex="1" parent="1">
          <mxGeometry x="-42" y="1106" width="126" height="84" as="geometry" />
        </mxCell>
        <mxCell id="4Z1tTK1gjGbMZetJ2Ssw-9" value="&lt;span style=&quot;font-size: 17px;&quot;&gt;Excel&lt;/span&gt;" style="rounded=1;whiteSpace=wrap;html=1;fillColor=#23A1D8;" vertex="1" parent="1">
          <mxGeometry x="154" y="1106" width="126" height="84" as="geometry" />
        </mxCell>
        <mxCell id="4Z1tTK1gjGbMZetJ2Ssw-10" value="&lt;span style=&quot;font-size: 17px;&quot;&gt;Электронная почта&lt;/span&gt;" style="rounded=1;whiteSpace=wrap;html=1;fillColor=#23A1D8;" vertex="1" parent="1">
          <mxGeometry x="154" y="1008" width="126" height="84" as="geometry" />
        </mxCell>
        <mxCell id="4Z1tTK1gjGbMZetJ2Ssw-11" value="&lt;span style=&quot;font-size: 17px;&quot;&gt;АБС&lt;/span&gt;" style="rounded=1;whiteSpace=wrap;html=1;fillColor=#23A1D8;" vertex="1" parent="1">
          <mxGeometry x="-392" y="672" width="126" height="98" as="geometry" />
        </mxCell>
      </root>
    </mxGraphModel>
  </diagram>
</mxfile>
